<svg xmlns:xlink="http://www.w3.org/1999/xlink" xmlns="http://www.w3.org/2000/svg" viewBox="0 0 30 31" type="taste-clock-6" class="css-ocvexr e16t9rkf0" width="30"  height="31" ><path fill-rule="evenodd" d="M14.96 4.88c6.44 0 10.8 5.2 10.8 10.84 0 5.92-4.8 11-10.8 10.84V4.88zM.12 15.72C.12 7.56 6.72.84 14.96.84c8.2 0 14.92 6.72 14.92 14.88 0 8.2-6.72 14.88-14.92 14.88C6.72 30.6.12 23.92.12 15.72zm2 0c0 7.16 5.8 12.92 12.84 12.92 7.16 0 12.92-5.76 12.92-12.92 0-7.12-5.76-12.88-12.92-12.88-7.04 0-12.84 5.76-12.84 12.88z"></path></svg>