<svg xmlns:xlink="http://www.w3.org/1999/xlink" xmlns="http://www.w3.org/2000/svg" viewBox="0 0 30 31" type="taste-clock-5" class="css-ocvexr e16t9rkf0" width="30"  height="31" ><path fill-rule="evenodd" d="M14.96 15.76V4.92c6.56 0 10.8 5.72 10.8 10.84 0 3.8-2.12 7.4-5.36 9.36l-5.44-9.36zm-14.84 0C.12 7.52 6.72.84 14.96.84c8.2 0 14.92 6.68 14.92 14.92 0 8.12-6.72 14.84-14.92 14.84C6.72 30.6.12 23.88.12 15.76zm2 0c0 7.08 5.68 12.88 12.84 12.88s12.92-5.8 12.92-12.88c0-7.2-5.76-12.96-12.92-12.96S2.12 8.56 2.12 15.76z"></path></svg>