<svg xmlns:xlink="http://www.w3.org/1999/xlink" xmlns="http://www.w3.org/2000/svg" viewBox="0 0 30 31" type="taste-clock-11" class="css-ocvexr e16t9rkf0" width="30"  height="31" ><path fill-rule="evenodd" d="M.12 15.76C.12 7.52 6.72.84 14.96.84c8.2 0 14.92 6.68 14.92 14.92 0 8.16-6.72 14.84-14.92 14.84C6.72 30.6.12 23.92.12 15.76zm2 0c0 7.12 5.8 12.92 12.84 12.92 7.16 0 12.92-5.8 12.92-12.92 0-7.2-5.76-13-12.92-13-7.04 0-12.84 5.8-12.84 13zm12.84 0V4.88s10.56.32 10.8 10.88c.12 6.04-5 10.8-10.8 10.8-5.84 0-10.84-4.88-10.84-10.8 0-3.92 2.16-7.48 5.44-9.4l5.4 9.4z"></path></svg>