<svg xmlns:xlink="http://www.w3.org/1999/xlink" xmlns="http://www.w3.org/2000/svg" viewBox="0 0 30 31" type="taste-clock-10" class="css-1a0aeb e16t9rkf0" width="30"  height="31" ><path fill-rule="evenodd" d="M.12 15.76C.12 7.52 6.72.84 14.96.84c8.2 0 14.92 6.68 14.92 14.92 0 8.16-6.72 14.84-14.92 14.84C6.72 30.6.12 23.92.12 15.76zm2 0c0 7.12 5.68 12.92 12.84 12.92s12.92-5.8 12.92-12.92c0-7.2-5.76-13-12.92-13s-12.84 5.8-12.84 13zm23.64 0c0 5.92-4.64 10.8-10.8 10.8-5.92 0-10.84-4.88-10.84-10.8 0-2.08.6-3.88 1.52-5.44l9.32 5.44V4.88c6.16 0 10.8 5.16 10.8 10.88z"></path></svg>