<svg xmlns:xlink="http://www.w3.org/1999/xlink" xmlns="http://www.w3.org/2000/svg" viewBox="0 0 30 31" type="taste-clock-9" class="css-ocvexr e16t9rkf0" width="30"  height="31" ><path fill-rule="evenodd" d="M15 15.76V4.88c4.24 0 10.8 3.16 10.8 10.88 0 5.76-4.4 10.8-10.84 10.8-6.4 0-10.8-4.96-10.8-10.8H15zm-14.88 0C.12 7.52 6.76.84 14.96.84c8.24 0 14.92 6.68 14.92 14.92 0 8.16-6.68 14.84-14.92 14.84C6.76 30.6.12 23.92.12 15.76zm1.92 0c0 7.12 5.76 12.92 12.92 12.92 7.2 0 12.96-5.8 12.96-12.92 0-7.2-5.76-13-12.96-13-7.16 0-12.92 5.8-12.92 13z"></path></svg>