<svg xmlns:xlink="http://www.w3.org/1999/xlink" xmlns="http://www.w3.org/2000/svg" viewBox="0 0 30 31" type="taste-clock-7" class="css-ocvexr e16t9rkf0" width="30"  height="31" ><path fill-rule="evenodd" d="M14.96 15.76V4.88c4.72 0 10.88 3.52 10.88 10.88 0 5.76-4.88 10.8-10.88 10.8-1.92 0-3.8-.56-5.32-1.48l5.32-9.32zm-14.84 0C.12 7.52 6.84.84 14.96.84c8.24 0 14.92 6.68 14.92 14.92 0 8.16-6.68 14.84-14.92 14.84C6.84 30.6.12 23.92.12 15.76zm2 0c0 7.12 5.8 12.92 12.84 12.92 7.16 0 12.92-5.8 12.92-12.92 0-7.2-5.76-13-12.92-13-7.04 0-12.84 5.8-12.84 13z"></path></svg>