<svg xmlns:xlink="http://www.w3.org/1999/xlink" xmlns="http://www.w3.org/2000/svg" viewBox="0 0 30 31" type="taste-clock-1" class="css-1a0aeb e16t9rkf0" width="30"  height="31" ><path fill-rule="evenodd" d="M20.4 6.36l-5.44 9.4V4.88c2 0 3.88.64 5.44 1.48zM.12 15.76C.12 7.52 6.72.84 14.96.84c8.2 0 14.92 6.68 14.92 14.92 0 8.16-6.72 14.84-14.92 14.84C6.72 30.6.12 23.92.12 15.76zm2 0c0 7.12 5.8 12.92 12.84 12.92 7.16 0 12.92-5.8 12.92-12.92 0-7.2-5.76-13-12.92-13-7.04 0-12.84 5.8-12.84 13z"></path></svg>