<svg xmlns:xlink="http://www.w3.org/1999/xlink" xmlns="http://www.w3.org/2000/svg" viewBox="0 0 24 24" type="detailed-view" class="css-1tzg0zi e1wjyngk1" width="24"  height="24" ><path d="M7 18H5a1 1 0 100 2h2a1 1 0 100-2zm6 0h-2a1 1 0 100 2h2a1 1 0 100-2zm6 0h-2a1 1 0 100 2h2a1 1 0 100-2z" fill-opacity="0.1" fill="#2D2926"></path><path fill-rule="evenodd" d="M5 4a1 1 0 00-1 1v8a1 1 0 001 1h14a1 1 0 001-1V5a1 1 0 00-1-1H5zm13 2H6v6h12V6z" clip-rule="evenodd" fill-opacity="0.1" fill="#2D2926"></path></svg>