<svg xmlns:xlink="http://www.w3.org/1999/xlink" xmlns="http://www.w3.org/2000/svg" viewBox="0 0 18 16" type="filter" height="20" width="20" class="css-1tzyzy6 e1vdopyw9"><path d="M10 8.17a3.001 3.001 0 010 5.66V15a1 1 0 11-2 0v-1.17a3.001 3.001 0 010-5.66V1a1 1 0 012 0v7.17zM9 12a1 1 0 100-2 1 1 0 000 2zM4 7.83V15a1 1 0 11-2 0V7.83a3.001 3.001 0 010-5.66V1a1 1 0 012 0v1.17a3.001 3.001 0 010 5.66zM3 4a1 1 0 100 2 1 1 0 000-2zm13 3.83V15a1 1 0 11-2 0V7.83a3.001 3.001 0 010-5.66V1a1 1 0 112 0v1.17a3.001 3.001 0 010 5.66zM15 4a1 1 0 100 2 1 1 0 000-2z" fill="#095741"></path></svg>